mtllib Root_mesh_lod1.mtl
o Root_mesh_part_0
usemtl pebblemat
v -1.6799860000610352 -1.549028992652893 2.0833609104156494
v -0.0361500009894371 0.1687150001525879 3.079525947570801
v -1.7261379957199097 1.697409987449646 2.2015609741210938
v -0.0361500009894371 0.1687150001525879 3.079525947570801
v 1.5996739864349365 1.6610709428787231 2.1986289024353027
v -1.7261379957199097 1.697409987449646 2.2015609741210938
v -1.7261379957199097 1.697409987449646 2.2015609741210938
v 1.5996739864349365 1.6610709428787231 2.1986289024353027
v 0.08869600296020508 2.3794379234313965 0.06399299949407578
v 1.5996739864349365 1.6610709428787231 2.1986289024353027
v 1.660109043121338 1.5645380020141602 -1.8994439840316772
v 0.08869600296020508 2.3794379234313965 0.06399299949407578
v -1.663761019706726 1.6004329919815063 -1.9138959646224976
v -0.4497770071029663 -0.09072700142860413 -2.9124810695648193
v -1.7393349409103394 -1.8959850072860718 -1.832576036453247
v -0.4497770071029663 -0.09072700142860413 -2.9124810695648193
v 1.7225639820098877 -1.9095410108566284 -1.8198879957199097
v -1.7393349409103394 -1.8959850072860718 -1.832576036453247
v -1.7393349409103394 -1.8959850072860718 -1.832576036453247
v -0.020205000415444374 -2.3831911087036133 0.03285900130867958
v -1.6799860000610352 -1.549028992652893 2.0833609104156494
v -0.020205000415444374 -2.3831911087036133 0.03285900130867958
v 1.738685965538025 -1.5527210235595703 2.482836961746216
v -1.6799860000610352 -1.549028992652893 2.0833609104156494
v 1.738685965538025 -1.5527210235595703 2.482836961746216
v 2.2088611125946045 -0.05256799980998039 -0.0279339998960495
v 1.5996739864349365 1.6610709428787231 2.1986289024353027
v 2.2088611125946045 -0.05256799980998039 -0.0279339998960495
v 1.660109043121338 1.5645380020141602 -1.8994439840316772
v 1.5996739864349365 1.6610709428787231 2.1986289024353027
v -1.7393349409103394 -1.8959850072860718 -1.832576036453247
v -2.4096670150756836 0.006506000179797411 -0.032239001244306564
v -1.663761019706726 1.6004329919815063 -1.9138959646224976
v -2.4096670150756836 0.006506000179797411 -0.032239001244306564
v -1.7261379957199097 1.697409987449646 2.2015609741210938
v -1.663761019706726 1.6004329919815063 -1.9138959646224976
v 1.738685965538025 -1.5527210235595703 2.482836961746216
v 1.7225639820098877 -1.9095410108566284 -1.8198879957199097
v 2.2088611125946045 -0.05256799980998039 -0.0279339998960495
v 1.7225639820098877 -1.9095410108566284 -1.8198879957199097
v 1.660109043121338 1.5645380020141602 -1.8994439840316772
v 2.2088611125946045 -0.05256799980998039 -0.0279339998960495
v -1.6799860000610352 -1.549028992652893 2.0833609104156494
v 1.738685965538025 -1.5527210235595703 2.482836961746216
v -0.0361500009894371 0.1687150001525879 3.079525947570801
v 1.738685965538025 -1.5527210235595703 2.482836961746216
v 1.5996739864349365 1.6610709428787231 2.1986289024353027
v -0.0361500009894371 0.1687150001525879 3.079525947570801
v -1.7393349409103394 -1.8959850072860718 -1.832576036453247
v -1.6799860000610352 -1.549028992652893 2.0833609104156494
v -2.4096670150756836 0.006506000179797411 -0.032239001244306564
v -1.6799860000610352 -1.549028992652893 2.0833609104156494
v -1.7261379957199097 1.697409987449646 2.2015609741210938
v -2.4096670150756836 0.006506000179797411 -0.032239001244306564
v -1.7393349409103394 -1.8959850072860718 -1.832576036453247
v 1.7225639820098877 -1.9095410108566284 -1.8198879957199097
v -0.020205000415444374 -2.3831911087036133 0.03285900130867958
v 1.7225639820098877 -1.9095410108566284 -1.8198879957199097
v 1.738685965538025 -1.5527210235595703 2.482836961746216
v -0.020205000415444374 -2.3831911087036133 0.03285900130867958
v -1.663761019706726 1.6004329919815063 -1.9138959646224976
v 1.660109043121338 1.5645380020141602 -1.8994439840316772
v -0.4497770071029663 -0.09072700142860413 -2.9124810695648193
v 1.660109043121338 1.5645380020141602 -1.8994439840316772
v 1.7225639820098877 -1.9095410108566284 -1.8198879957199097
v -0.4497770071029663 -0.09072700142860413 -2.9124810695648193
v 0.08869600296020508 2.3794379234313965 0.06399299949407578
v 1.660109043121338 1.5645380020141602 -1.8994439840316772
v -1.663761019706726 1.6004329919815063 -1.9138959646224976
v -1.7261379957199097 1.697409987449646 2.2015609741210938
v 0.08869600296020508 2.3794379234313965 0.06399299949407578
v -1.663761019706726 1.6004329919815063 -1.9138959646224976
vt 0 1
vt 0.5 0.5
vt 0 0
vt 0.5 0.5
vt 1 0
vt 0 0
vt 0 0
vt 1 0
vt 0.5 -0.5
vt 1 0
vt 1 -1
vt 0.5 -0.5
vt 0 -1
vt 0.5 -1.5
vt 0 -2
vt 0.5 -1.5
vt 1 -2
vt 0 -2
vt 0 -2
vt 0.5 -2.5
vt 0 -3
vt 0.5 -2.5
vt 1 -3
vt 0 -3
vt 1 1
vt 1.5 0.5
vt 1 0
vt 1.5 0.5
vt 2 0
vt 1 0
vt -1 1
vt -0.5 0.5
vt -1 0
vt -0.5 0.5
vt 0 0
vt -1 0
vt 1 1
vt 2 1
vt 1.5 0.5
vt 2 1
vt 2 0
vt 1.5 0.5
vt 0 1
vt 1 1
vt 0.5 0.5
vt 1 1
vt 1 0
vt 0.5 0.5
vt -1 1
vt 0 1
vt -0.5 0.5
vt 0 1
vt 0 0
vt -0.5 0.5
vt 0 -2
vt 1 -2
vt 0.5 -2.5
vt 1 -2
vt 1 -3
vt 0.5 -2.5
vt 0 -1
vt 1 -1
vt 0.5 -1.5
vt 1 -1
vt 1 -2
vt 0.5 -1.5
vt 0.5 -0.5
vt 1 -1
vt 0 -1
vt 0 0
vt 0.5 -0.5
vt 0 -1
vn -0.6090569458878008 -0.5772759314122214 0.5438769490224572
vn -0.05240200084977596 0.039716001581454524 0.9978359933001625
vn -0.6064109397215725 0.6059689713100825 0.5148469461843974
vn -0.05240200084977596 0.039716001581454524 0.9978359933001625
vn 0.6063107119717273 0.6178066539078498 0.5007017664593597
vn -0.6064109397215725 0.6059689713100825 0.5148469461843974
vn -0.6064109397215725 0.6059689713100825 0.5148469461843974
vn 0.6063107119717273 0.6178066539078498 0.5007017664593597
vn 0.023883993951138337 0.9993097528082443 -0.028452992378088054
vn 0.6063107119717273 0.6178066539078498 0.5007017664593597
vn 0.6168160638769974 0.5832360543730706 -0.5285580840575809
vn 0.023883993951138337 0.9993097528082443 -0.028452992378088054
vn -0.6121608734583379 0.596485867907441 -0.5190989061763004
vn -0.05531499193978625 -0.0051109993757941 -0.9984558725111902
vn -0.6346677704620223 -0.6159388055357222 -0.46670784112975167
vn -0.05531499193978625 -0.0051109993757941 -0.9984558725111902
vn 0.6145672602763967 -0.6128012930607641 -0.4967712328823188
vn -0.6346677704620223 -0.6159388055357222 -0.46670784112975167
vn -0.6346677704620223 -0.6159388055357222 -0.46670784112975167
vn -0.01761200212523084 -0.9974510752090302 0.06914600455189235
vn -0.6090569458878008 -0.5772759314122214 0.5438769490224572
vn -0.01761200212523084 -0.9974510752090302 0.06914600455189235
vn 0.5906829426105838 -0.5627989380357866 0.5782309371303932
vn -0.6090569458878008 -0.5772759314122214 0.5438769490224572
vn 0.5906829426105838 -0.5627989380357866 0.5782309371303932
vn 0.9994002085928526 0.03383100672417299 -0.007395001595096483
vn 0.6063107119717273 0.6178066539078498 0.5007017664593597
vn 0.9994002085928526 0.03383100672417299 -0.007395001595096483
vn 0.6168160638769974 0.5832360543730706 -0.5285580840575809
vn 0.6063107119717273 0.6178066539078498 0.5007017664593597
vn -0.6346677704620223 -0.6159388055357222 -0.46670784112975167
vn -0.9999643086200621 0.004520001359036466 -0.007138002081497106
vn -0.6121608734583379 0.596485867907441 -0.5190989061763004
vn -0.9999643086200621 0.004520001359036466 -0.007138002081497106
vn -0.6064109397215725 0.6059689713100825 0.5148469461843974
vn -0.6121608734583379 0.596485867907441 -0.5190989061763004
vn 0.5906829426105838 -0.5627989380357866 0.5782309371303932
vn 0.6145672602763967 -0.6128012930607641 -0.4967712328823188
vn 0.9994002085928526 0.03383100672417299 -0.007395001595096483
vn 0.6145672602763967 -0.6128012930607641 -0.4967712328823188
vn 0.6168160638769974 0.5832360543730706 -0.5285580840575809
vn 0.9994002085928526 0.03383100672417299 -0.007395001595096483
vn -0.6090569458878008 -0.5772759314122214 0.5438769490224572
vn 0.5906829426105838 -0.5627989380357866 0.5782309371303932
vn -0.05240200084977596 0.039716001581454524 0.9978359933001625
vn 0.5906829426105838 -0.5627989380357866 0.5782309371303932
vn 0.6063107119717273 0.6178066539078498 0.5007017664593597
vn -0.05240200084977596 0.039716001581454524 0.9978359933001625
vn -0.6346677704620223 -0.6159388055357222 -0.46670784112975167
vn -0.6090569458878008 -0.5772759314122214 0.5438769490224572
vn -0.9999643086200621 0.004520001359036466 -0.007138002081497106
vn -0.6090569458878008 -0.5772759314122214 0.5438769490224572
vn -0.6064109397215725 0.6059689713100825 0.5148469461843974
vn -0.9999643086200621 0.004520001359036466 -0.007138002081497106
vn -0.6346677704620223 -0.6159388055357222 -0.46670784112975167
vn 0.6145672602763967 -0.6128012930607641 -0.4967712328823188
vn -0.01761200212523084 -0.9974510752090302 0.06914600455189235
vn 0.6145672602763967 -0.6128012930607641 -0.4967712328823188
vn 0.5906829426105838 -0.5627989380357866 0.5782309371303932
vn -0.01761200212523084 -0.9974510752090302 0.06914600455189235
vn -0.6121608734583379 0.596485867907441 -0.5190989061763004
vn 0.6168160638769974 0.5832360543730706 -0.5285580840575809
vn -0.05531499193978625 -0.0051109993757941 -0.9984558725111902
vn 0.6168160638769974 0.5832360543730706 -0.5285580840575809
vn 0.6145672602763967 -0.6128012930607641 -0.4967712328823188
vn -0.05531499193978625 -0.0051109993757941 -0.9984558725111902
vn 0.023883993951138337 0.9993097528082443 -0.028452992378088054
vn 0.6168160638769974 0.5832360543730706 -0.5285580840575809
vn -0.6121608734583379 0.596485867907441 -0.5190989061763004
vn -0.6064109397215725 0.6059689713100825 0.5148469461843974
vn 0.023883993951138337 0.9993097528082443 -0.028452992378088054
vn -0.6121608734583379 0.596485867907441 -0.5190989061763004
f 1/1/1 2/2/2 3/3/3
f 4/4/4 5/5/5 6/6/6
f 7/7/7 8/8/8 9/9/9
f 10/10/10 11/11/11 12/12/12
f 13/13/13 14/14/14 15/15/15
f 16/16/16 17/17/17 18/18/18
f 19/19/19 20/20/20 21/21/21
f 22/22/22 23/23/23 24/24/24
f 25/25/25 26/26/26 27/27/27
f 28/28/28 29/29/29 30/30/30
f 31/31/31 32/32/32 33/33/33
f 34/34/34 35/35/35 36/36/36
f 37/37/37 38/38/38 39/39/39
f 40/40/40 41/41/41 42/42/42
f 43/43/43 44/44/44 45/45/45
f 46/46/46 47/47/47 48/48/48
f 49/49/49 50/50/50 51/51/51
f 52/52/52 53/53/53 54/54/54
f 55/55/55 56/56/56 57/57/57
f 58/58/58 59/59/59 60/60/60
f 61/61/61 62/62/62 63/63/63
f 64/64/64 65/65/65 66/66/66
f 67/67/67 68/68/68 69/69/69
f 70/70/70 71/71/71 72/72/72
